<svg height="512pt" viewBox="-32 0 512 512" width="512pt" xmlns="http://www.w3.org/2000/svg"><path d="m84.59375 160.871094h283.964844c26.980468 0 48.851562 21.871094 48.851562 48.851562v4.308594c0 26.980469-21.871094 48.851562-48.851562 48.851562h-283.964844c-26.980469 0-48.851562-21.871093-48.851562-48.851562v-4.308594c0-26.980468 21.871093-48.851562 48.851562-48.851562zm0 0" fill="#2b2f3a"/><path d="m448.886719 315.707031c0 27.957031-21.53125 50.867188-48.910157 53.058594-1.425781.121094-2.878906.183594-4.332031.183594-3.726562 0-7.355469-.375-10.867187-1.113281h-320.667969c-3.511719.738281-7.144531 1.113281-10.871094 1.113281h-.035156c-29.398437-.023438-53.203125-23.84375-53.203125-53.238281 0-27.714844 21.179688-50.480469 48.242188-52.988282 1.644531-.167968 3.316406-.238281 4.996093-.238281 2.238281 0 4.429688.132813 6.597657.398437h329.214843c2.164063-.265624 4.355469-.398437 6.59375-.398437 3.160157 0 6.257813.277344 9.257813.808594 24.992187 4.367187 43.984375 26.175781 43.984375 52.414062zm0 0" fill="#ffd0a6"/><g fill="#e8b182"><path d="m404.902344 263.292969v67.433593c0 13.097657-1.703125 25.839844-4.925782 38.039063-1.425781.121094-2.878906.183594-4.332031.183594-3.726562 0-7.355469-.375-10.867187-1.113281h-320.667969c-3.511719.738281-7.144531 1.113281-10.871094 1.113281h-.035156c-3.242187-12.261719-4.960937-25.054688-4.960937-38.222657v-68.003906c1.644531-.167968 3.316406-.242187 4.996093-.242187 2.238281 0 4.429688.132812 6.597657.402343h329.214843c2.164063-.265624 4.355469-.402343 6.59375-.402343 3.160157 0 6.257813.277343 9.257813.8125zm0 0"/><path d="m419.859375 325.15625c-3.03125 0-5.914063-1.761719-7.199219-4.71875-2.152344-4.945312-5.863281-7.578125-11.679687-8.292969-5.144531-.628906-9.785157.609375-9.832031.621094-4.167969 1.136719-8.484376-1.304687-9.640626-5.460937-1.15625-4.160157 1.242188-8.464844 5.398438-9.644532 10.148438-2.882812 31.597656-3.132812 40.144531 16.523438 1.726563 3.972656-.09375 8.59375-4.066406 10.320312-1.019531.445313-2.082031.652344-3.125.652344zm0 0"/><path d="m34.496094 325.15625c-1.042969 0-2.105469-.210938-3.125-.652344-3.972656-1.730468-5.792969-6.355468-4.0625-10.328125 7.367187-16.921875 24.675781-19.84375 38.417968-16.9375 4.242188.898438 6.953126 5.0625 6.054688 9.300781-.898438 4.238282-5.058594 6.949219-9.300781 6.050782-4.78125-1.011719-16.378907-2.269532-20.785157 7.851562-1.285156 2.953125-4.167968 4.714844-7.199218 4.714844zm0 0"/></g><path d="m389.046875 238.894531v110.640625c0 79.175782-56.640625 145.121094-131.613281 159.535156-9.984375 1.925782-20.308594 2.929688-30.863282 2.929688-89.726562 0-162.464843-72.738281-162.464843-162.464844v-110.640625c0-89.730469 72.738281-162.476562 162.464843-162.476562 10.554688 0 20.878907 1.003906 30.863282 2.929687 32.496094 6.242188 61.539062 22.171875 84.027344 44.65625 29.394531 29.410156 47.585937 70.023438 47.585937 114.890625zm0 0" fill="#2b2f3a"/><path d="m389.046875 238.894531v110.640625c0 79.175782-56.640625 145.121094-131.613281 159.535156-74.976563-14.414062-131.617188-80.359374-131.617188-159.535156v-110.640625c0-79.175781 56.640625-145.132812 131.617188-159.546875 32.496094 6.242188 61.539062 22.171875 84.027344 44.65625 29.394531 29.410156 47.585937 70.023438 47.585937 114.890625zm0 0" fill="#575f64"/><path d="m198.203125 108.777344 163.996094 96.867187-10.863281 160.578125c-.617188 8.976563-8.078126 15.949219-17.085938 15.949219-3.140625 0-6.164062-.859375-8.757812-2.40625-2.613282-1.558594-4.800782-3.796875-6.300782-6.558594-2.515625-4.621093-6.179687-8.378906-10.554687-10.976562-4.359375-2.609375-9.402344-4.046875-14.675781-4.046875h-67.382813v-.003906h-67.386719c-10.53125 0-20.21875 5.769531-25.234375 15.03125-2.992187 5.523437-8.773437 8.964843-15.054687 8.964843-9.003906 0-16.464844-6.96875-17.082032-15.949219l-10.480468-152.363281zm0 0" fill="#ffd0a6"/><path d="m125.820312 349.535156c0 10.140625.929688 20.050782 2.71875 29.671875-.285156.191407-.574218.382813-.875.558594-2.609374 1.546875-5.628906 2.40625-8.757812 2.40625-4.496094 0-8.625-1.75-11.6875-4.605469-3.074219-2.871094-5.082031-6.847656-5.398438-11.34375l-10.480468-152.363281 55.066406-54.136719c-13.121094 23.425782-20.585938 50.417969-20.585938 79.175782zm0 0" fill="#e8b182"/><path d="m155.796875 335.472656c-4.332031 0-7.847656-3.511718-7.847656-7.84375v-39.9375c0-4.332031 3.515625-7.847656 7.847656-7.847656s7.84375 3.515625 7.84375 7.847656v39.9375c0 4.332032-3.511719 7.84375-7.84375 7.84375zm0 0" fill="#2b2f3a"/><path d="m297.355469 335.472656c-4.332031 0-7.84375-3.511718-7.84375-7.84375v-39.9375c0-4.332031 3.511719-7.847656 7.84375-7.847656 4.335937 0 7.847656 3.515625 7.847656 7.847656v39.9375c0 4.332032-3.511719 7.84375-7.847656 7.84375zm0 0" fill="#2b2f3a"/><path d="m379.386719 0-72.886719 72.886719c-6.175781-15.160157-21.035156-25.859375-38.417969-25.859375-14.261719 0-26.835937 7.203125-34.304687 18.164062-19.046875-23.46875-48.113282-38.46875-80.699219-38.46875-57.40625 0-103.941406 46.535156-103.941406 103.941406s46.535156 103.945313 103.941406 103.945313c23.980469 0 46.046875-8.144531 63.636719-21.785156 51.617187 29.582031 118.582031 22.359375 162.671875-21.730469 52.769531-52.765625 52.769531-138.324219 0-191.09375zm0 0" fill="#575f64"/><path d="m111.511719 130.667969c0 46.535156 30.582031 85.9375 72.742187 99.175781-9.824218 3.101562-20.304687 4.765625-31.175781 4.765625-57.40625 0-103.941406-46.535156-103.941406-103.941406s46.535156-103.941407 103.941406-103.941407c10.871094 0 21.328125 1.660157 31.175781 4.761719-42.160156 13.242188-72.742187 52.644531-72.742187 99.179688zm0 0" fill="#2b2f3a"/><path d="m226.578125 430.875c-20.539063 0-39.847656-8-54.367187-22.519531-3.066407-3.066407-3.066407-8.03125 0-11.097657 3.0625-3.0625 8.03125-3.0625 11.09375 0 11.558593 11.558594 26.925781 17.921876 43.273437 17.921876 16.34375 0 31.710937-6.363282 43.265625-17.921876 3.066406-3.0625 8.035156-3.0625 11.097656 0 3.066406 3.066407 3.066406 8.03125 0 11.097657-14.519531 14.519531-33.828125 22.519531-54.363281 22.519531zm0 0" fill="#e8b182"/></svg>