<svg height="512pt" viewBox="-31 0 512 512" width="512pt" xmlns="http://www.w3.org/2000/svg"><path d="m417.25 264.027344 13.457031-21.597656c3.832031-6.148438 6.085938-13.210938 6.113281-20.457032 0-.050781 0-.105468 0-.160156 0-9.082031-2.839843-17.515625-7.667968-24.457031 8.902344-7.859375 14.527344-19.339844 14.527344-32.148438 0-18.476562-11.6875-34.222656-28.066407-40.257812.894531-3.441407 1.371094-7.050781 1.371094-10.765625 0-23.703125-19.214844-42.902344-42.902344-42.902344-3.316406 0-6.542969.382812-9.65625 1.109375-.175781-23.535156-19.308593-42.558594-42.886719-42.558594-7.148437 0-13.894531 1.769531-19.820312 4.855469-3.828125-19.765625-21.21875-34.6875-42.105469-34.6875-12.851562 0-24.375 5.652344-32.234375 14.59375-7.859375-8.941406-19.378906-14.59375-32.230468-14.59375-20.890626 0-38.28125 14.921875-42.109376 34.6875-5.921874-3.085938-12.671874-4.855469-19.816406-4.855469-23.578125 0-42.714844 19.023438-42.890625 42.558594-3.113281-.726563-6.335937-1.109375-9.65625-1.109375-23.6875 0-42.902343 19.199219-42.902343 42.902344 0 3.71875.480468 7.324218 1.371093 10.765625-16.378906 6.035156-28.0625 21.78125-28.0625 40.257812 0 12.808594 5.621094 24.289063 14.523438 32.148438-4.828125 6.941406-7.667969 15.375-7.667969 24.457031v.164062c.027344 7.242188 2.28125 14.304688 6.113281 20.453126l13.457031 21.597656" fill="#575f64"/><path d="m228.121094 34.6875c-5.925782-3.085938-12.675782-4.855469-19.820313-4.855469-23.578125 0-42.710937 19.023438-42.890625 42.558594-3.113281-.726563-6.335937-1.109375-9.652344-1.109375-23.6875 0-42.90625 19.199219-42.90625 42.902344 0 3.71875.480469 7.324218 1.371094 10.765625-16.375 6.035156-28.0625 21.78125-28.0625 40.257812 0 12.808594 5.625 24.289063 14.527344 32.148438-4.828125 6.941406-7.667969 15.375-7.667969 24.457031v.164062c.027344 7.242188 2.277344 14.304688 6.105469 20.449219l13.46875 21.601563h-75.082031l-13.457031-21.601563c-3.824219-6.144531-6.085938-13.207031-6.117188-20.449219v-.164062c0-9.082031 2.839844-17.515625 7.667969-24.457031-8.902344-7.859375-14.523438-19.339844-14.523438-32.148438 0-18.476562 11.683594-34.222656 28.0625-40.257812-.890625-3.441407-1.371093-7.046875-1.371093-10.765625 0-23.699219 19.214843-42.902344 42.902343-42.902344 3.316407 0 6.542969.382812 9.65625 1.113281.175781-23.539062 19.308594-42.5625 42.886719-42.5625 7.148438 0 13.894531 1.769531 19.820312 4.855469 3.828126-19.765625 21.21875-34.6875 42.109376-34.6875 10.957031 0 20.957031 4.113281 28.527343 10.890625-.5625 8.832031.78125 17.488281 4.445313 23.796875zm0 0" fill="#2b2f3a"/><path d="m450.472656 315.011719c0 28.054687-21.609375 51.046875-49.082031 53.246093-1.429687.121094-2.886719.179688-4.347656.179688-3.738281 0-7.382813-.375-10.90625-1.117188h-321.800781c-3.523438.742188-7.167969 1.117188-10.910157 1.117188h-.035156c-29.5-.023438-53.390625-23.925781-53.390625-53.425781 0-27.8125 21.253906-50.65625 48.410156-53.171875 1.652344-.167969 3.328125-.242188 5.015625-.242188 2.25 0 4.449219.132813 6.621094.398438h330.375c2.175781-.265625 4.375-.398438 6.621094-.398438 3.167969 0 6.277343.277344 9.289062.8125 25.082031 4.386719 44.140625 26.269532 44.140625 52.601563zm0 0" fill="#c99061"/><g fill="#ad7449"><path d="m406.335938 262.410156v67.671875c0 13.140625-1.714844 25.933594-4.945313 38.175781-1.433594.121094-2.890625.179688-4.347656.179688-3.742188 0-7.386719-.375-10.90625-1.117188h-321.800781c-3.523438.742188-7.167969 1.117188-10.910157 1.117188h-.035156c-3.253906-12.300781-4.980469-25.140625-4.980469-38.351562v-68.246094c1.652344-.167969 3.328125-.242188 5.015625-.242188 2.25 0 4.449219.132813 6.621094.398438h330.375c2.175781-.265625 4.375-.398438 6.621094-.398438 3.171875 0 6.28125.277344 9.292969.8125zm0 0"/><path d="m421.339844 324.484375c-3.035156 0-5.925782-1.769531-7.210938-4.730469-5.296875-12.179687-20.898437-7.90625-21.5625-7.71875-4.175781 1.1875-8.523437-1.238281-9.707031-5.414062-1.1875-4.179688 1.238281-8.527344 5.414063-9.710938 10.183593-2.890625 31.699218-3.144531 40.273437 16.574219 1.730469 3.980469-.09375 8.613281-4.074219 10.34375-1.019531.445313-2.082031.65625-3.132812.65625zm0 0"/><path d="m34.621094 324.480469c-1.046875 0-2.113282-.210938-3.132813-.65625-3.984375-1.730469-5.804687-6.363281-4.074219-10.34375 7.390626-16.980469 24.757813-19.910157 38.546876-16.992188 4.246093.898438 6.960937 5.070313 6.0625 9.320313-.898438 4.246094-5.074219 6.960937-9.320313 6.0625-4.800781-1.015625-16.445313-2.28125-20.871094 7.882812-1.289062 2.960938-4.179687 4.726563-7.210937 4.726563zm0 0"/><path d="m390.421875 240.152344v108.808594c0 79.457031-56.839844 145.632812-132.085937 160.089843-10.011719 1.933594-20.367188 2.949219-30.96875 2.949219-90.046876 0-163.027344-72.996094-163.027344-163.039062v-108.792969c7.832031 8.433593 19.011718 13.699219 31.421875 13.699219 11.933593 0 22.726562-4.867188 30.503906-12.742188 7.65625-7.75 12.386719-18.390625 12.386719-30.148438 0-2.453124-.207032-4.855468-.605469-7.199218.179687.015625.359375.015625.535156.015625 14.664063 0 27.597657-7.351563 35.347657-18.585938 5.867187 3.019531 12.507812 4.730469 19.570312 4.730469 13.769531 0 26.03125-6.5 33.878906-16.59375 7.84375 10.09375 20.09375 16.59375 33.878906 16.59375 7.046876 0 13.699219-1.714844 19.570313-4.730469 7.738281 11.234375 20.683594 18.585938 35.347656 18.585938.175781 0 .355469 0 .535157-.015625-.398438 2.34375-.617188 4.746094-.617188 7.199218 0 23.6875 19.214844 42.890626 42.902344 42.890626 12.414062 0 23.605468-5.28125 31.425781-13.714844zm0 0"/></g><path d="m390.421875 240.152344v108.808594c0 79.457031-56.839844 145.632812-132.085937 160.089843-75.230469-14.457031-132.070313-80.632812-132.070313-160.089843v-107.835938c7.65625-7.75 12.386719-18.390625 12.386719-30.148438 0-2.453124-.207032-4.855468-.605469-7.199218.179687.015625.359375.015625.535156.015625 14.664063 0 27.597657-7.351563 35.347657-18.585938 5.867187 3.019531 12.507812 4.730469 19.570312 4.730469 13.769531 0 26.03125-6.5 33.878906-16.59375 7.84375 10.09375 20.09375 16.59375 33.878906 16.59375 7.046876 0 13.699219-1.714844 19.570313-4.730469 7.738281 11.234375 20.683594 18.585938 35.347656 18.585938.175781 0 .355469 0 .535157-.015625-.398438 2.34375-.617188 4.746094-.617188 7.199218 0 23.6875 19.214844 42.890626 42.902344 42.890626 12.414062 0 23.605468-5.28125 31.425781-13.714844zm0 0" fill="#c99061"/><path d="m227.375 409.554688c-18.265625 0-36.535156-6.953126-50.441406-20.859376-3.070313-3.070312-3.070313-8.046874 0-11.117187 3.070312-3.070313 8.050781-3.070313 11.121094 0 21.679687 21.683594 56.960937 21.683594 78.644531 0 3.070312-3.070313 8.046875-3.070313 11.117187 0 3.070313 3.070313 3.070313 8.046875 0 11.117187-13.90625 13.90625-32.171875 20.859376-50.441406 20.859376zm0 0" fill="#ad7449"/><path d="m156.347656 334.835938c-4.34375 0-7.863281-3.523438-7.863281-7.863282v-40.078125c0-4.34375 3.519531-7.863281 7.863281-7.863281s7.863282 3.519531 7.863282 7.863281v40.078125c0 4.339844-3.523438 7.863282-7.863282 7.863282zm0 0" fill="#2b2f3a"/><path d="m298.410156 334.835938c-4.34375 0-7.863281-3.523438-7.863281-7.863282v-40.078125c0-4.34375 3.519531-7.863281 7.863281-7.863281 4.339844 0 7.859375 3.519531 7.859375 7.863281v40.078125c0 4.339844-3.519531 7.863282-7.859375 7.863282zm0 0" fill="#2b2f3a"/></svg>