<svg height="512pt" viewBox="0 -8 512 512" width="512pt" xmlns="http://www.w3.org/2000/svg"><path d="m512 272.476562c0 31.886719-24.558594 58.019532-55.78125 60.519532-1.628906.136718-3.285156.207031-4.941406.207031-4.253906 0-8.394532-.429687-12.398438-1.269531h-365.757812c-4.003906.839844-8.144532 1.269531-12.398438 1.269531h-.039062c-33.53125-.027344-60.683594-27.195313-60.683594-60.726563 0-31.609374 24.15625-57.578124 55.023438-60.433593 1.878906-.195313 3.785156-.277344 5.703124-.277344 2.550782 0 5.050782.152344 7.523438.457031h375.5c2.472656-.304687 4.972656-.457031 7.523438-.457031 3.605468 0 7.136718.316406 10.5625.925781 28.503906 4.984375 50.164062 29.859375 50.164062 59.785156zm0 0" fill="#ffd0a6"/><g fill="#e8b182"><path d="m461.835938 212.691406v76.917969c0 14.933594-1.945313 29.472656-5.617188 43.386719-1.628906.136718-3.285156.207031-4.941406.207031-4.253906 0-8.394532-.429687-12.398438-1.269531h-365.757812c-4.003906.839844-8.144532 1.269531-12.398438 1.269531h-.039062c-3.699219-13.984375-5.660156-28.574219-5.660156-43.59375v-77.566406c1.878906-.195313 3.78125-.277344 5.699218-.277344 2.554688 0 5.054688.152344 7.523438.457031h375.503906c2.472656-.304687 4.96875-.457031 7.523438-.457031 3.605468 0 7.136718.316406 10.5625.925781zm0 0"/><path d="m478.890625 282.144531c-3.023437 0-5.90625-1.765625-7.1875-4.714843-6.214844-14.292969-23.859375-9.925782-25.847656-9.382813-4.160157 1.140625-8.480469-1.292969-9.636719-5.449219-1.160156-4.152344 1.242188-8.457031 5.390625-9.636718 11.25-3.195313 35.023437-3.496094 44.464844 18.21875 1.726562 3.96875-.09375 8.585937-4.0625 10.3125-1.015625.441406-2.078125.652343-3.121094.652343zm0 0"/><path d="m39.347656 282.140625c-1.042968 0-2.105468-.210937-3.125-.652344-3.964844-1.726562-5.785156-6.34375-4.054687-10.3125 8.132812-18.691406 27.324219-21.902343 42.570312-18.675781 4.234375.894531 6.941407 5.054688 6.046875 9.289062-.894531 4.234376-5.054687 6.941407-9.289062 6.042969-5.722656-1.207031-19.605469-2.695312-24.957032 9.597657-1.285156 2.949218-4.167968 4.710937-7.191406 4.710937zm0 0"/><path d="m441.316406 185.320312v126.199219c0 90.308594-64.605468 165.527344-150.125 181.96875-11.386718 2.195313-23.160156 3.339844-35.199218 3.339844-102.34375 0-185.308594-82.960937-185.308594-185.308594v-126.199219c0-102.34375 82.964844-185.320312 185.308594-185.320312 12.039062 0 23.8125 1.144531 35.199218 3.339844 37.066406 7.125 70.195313 25.289062 95.84375 50.9375 33.53125 33.546875 54.28125 79.871094 54.28125 131.042968zm0 0"/></g><path d="m333.191406 462.3125c8.199219 1.640625 16.957032 2.71875 26.226563 2.988281-20.261719 13.660157-43.355469 23.40625-68.222657 28.183594-31.410156-6.03125-60.007812-20.011719-83.613281-39.75 30.71875-12.316406 48.421875-30.019531 48.421875-30.019531s28.996094 28.996094 77.1875 38.597656zm0 0" fill="#ffd0a6"/><path d="m441.316406 185.320312v126.203126c0 26.90625-5.738281 52.464843-16.050781 75.535156-20.761719-20.289063-36.6875-49.339844-76.894531-49.339844-4.667969 0-9.394532.191406-14.117188.671875-27.101562 2.695313-54.6875 14.5625-78.25 51.785156-27.667968-43.71875-60.898437-52.457031-92.378906-52.457031-7.554688 0-14.253906 1.027344-20.292969 2.832031-1.484375-9.453125-2.257812-19.152343-2.257812-29.027343v-126.203126c0-90.308593 64.605469-165.542968 150.121093-181.976562 37.0625 7.113281 70.195313 25.285156 95.839844 50.9375 33.527344 33.542969 54.28125 79.871094 54.28125 131.039062zm0 0" fill="#ffd0a6"/><path d="m175.269531 294.367188c-4.328125 0-7.839843-3.507813-7.839843-7.835938v-45.550781c0-4.328125 3.511718-7.835938 7.839843-7.835938s7.835938 3.507813 7.835938 7.835938v45.550781c0 4.328125-3.507813 7.835938-7.835938 7.835938zm0 0" fill="#2b2f3a"/><path d="m336.730469 294.367188c-4.328125 0-7.835938-3.507813-7.835938-7.835938v-45.550781c0-4.328125 3.507813-7.835938 7.835938-7.835938s7.839843 3.507813 7.839843 7.835938v45.550781c0 4.328125-3.507812 7.835938-7.839843 7.835938zm0 0" fill="#2b2f3a"/><path d="m441.316406 185.324219v23.960937c-87.890625 12.484375-164.949218-65.523437-164.949218-65.523437l22.855468 59.425781s-134.082031 19.816406-217.453125-81.140625c25.863281-71.195313 94.109375-122.046875 174.222657-122.046875 12.035156 0 23.804687 1.140625 35.199218 3.335938 37.058594 7.125 70.199219 25.285156 95.84375 50.945312 33.53125 33.546875 54.28125 79.863281 54.28125 131.042969zm0 0" fill="#2b2f3a"/><path d="m441.316406 185.324219v23.960937c-87.894531 12.484375-164.949218-65.523437-164.949218-65.523437l22.851562 59.425781s-82.058594 12.128906-157.699219-30.925781c5.878907-84.433594 68.3125-153.273438 149.671875-168.925781 37.054688 7.125 70.199219 25.285156 95.84375 50.945312 33.53125 33.546875 54.28125 79.863281 54.28125 131.042969zm0 0" fill="#575f64"/><path d="m475.179688 382.976562s-44.617188 59.453126-111.070313 59.453126c-11.015625 0-21.347656-1.148438-30.917969-3.0625-48.191406-9.601563-77.1875-38.597657-77.1875-38.597657s-24.640625 24.640625-66.238281 36.007813c-12.496094 3.425781-26.527344 5.652344-41.878906 5.652344-66.453125 0-111.070313-59.453126-111.070313-59.453126 35.410156 4.105469 50.65625-20.125 70.300782-40.835937 13.800781-14.554687 29.800781-27.367187 56.507812-27.367187 31.480469 0 64.710938 8.738281 92.378906 52.453124 23.5625-37.21875 51.148438-49.085937 78.25-51.785156 4.722656-.480468 9.449219-.667968 14.117188-.667968 64.699218 0 66.507812 75.191406 126.808594 68.203124zm0 0" fill="#575f64"/><path d="m333.191406 439.367188c-48.191406-9.601563-77.1875-38.597657-77.1875-38.597657v-33.542969c23.5625-37.21875 51.148438-49.085937 78.25-51.785156-34.492187 9.71875-58.992187 86.832032-1.0625 123.925782zm0 0" fill="#2b2f3a"/><path d="m189.765625 436.777344c-12.496094 3.425781-26.527344 5.652344-41.878906 5.652344-66.453125 0-111.070313-59.453126-111.070313-59.453126 35.410156 4.105469 50.65625-20.125 70.300782-40.835937-26.980469 27.929687 20.25 94.59375 82.648437 94.636719zm0 0" fill="#2b2f3a"/></svg>