<svg height="512pt" viewBox="0 -17 512.00058 512" width="512pt" xmlns="http://www.w3.org/2000/svg"><path d="m394.9375 410.914062c195.492188 0 87.085938-102.253906 87.085938-230.257812s-101.683594-180.65625-226.023438-180.65625c-124.335938 0-226.023438 52.648438-226.023438 180.65625 0 128.003906-108.40625 230.257812 87.085938 230.257812zm0 0" fill="#fdc050"/><path d="m141.503906 180.660156c0 128-54.914062 230.261719 44.109375 230.261719h-68.546875c-195.496094 0-87.089844-102.261719-87.089844-230.261719 0-128.015625 101.691407-180.660156 226.027344-180.660156-62.996094 0-114.5 52.644531-114.5 180.660156zm0 0" fill="#fc9e51"/><path d="m413.808594 215.503906v104.453125c0 76.894531-55.023438 140.941407-127.828125 154.929688-8.335938 1.609375-16.898438 2.5625-25.644531 2.800781h-.214844c-1.367188.042969-2.734375.054688-4.113282.054688-87.15625 0-157.789062-70.644532-157.789062-157.785157v-104.453125c69.320312-5.734375 135.621094-39.34375 157.789062-114.421875 22.152344 75.078125 88.46875 108.6875 157.800782 114.421875zm0 0" fill="#ffd0a6"/><path d="m284.53125 475.152344c-7.882812 1.449218-15.953125 2.3125-24.199219 2.535156h-.210937c-1.367188.042969-2.734375.054688-4.113282.054688-87.15625 0-157.789062-70.644532-157.789062-157.785157v-104.453125c19.582031-1.621094 38.90625-5.46875 57.078125-11.839844v116.292969c0 77.398438 55.710937 141.777344 129.234375 155.195313zm0 0" fill="#e8b182"/><path d="m256.003906 384.9375c-19.769531 0-39.539062-7.523438-54.59375-22.574219-3.058594-3.0625-3.058594-8.023437 0-11.082031 3.0625-3.0625 8.023438-3.0625 11.082032 0 23.992187 23.988281 63.03125 23.992188 87.023437 0 3.0625-3.0625 8.023437-3.0625 11.082031 0 3.0625 3.058594 3.0625 8.019531 0 11.082031-15.050781 15.050781-34.820312 22.574219-54.59375 22.574219zm0 0" fill="#fc4549"/><g fill="#2b2f3a"><path d="m187.269531 305.101562c-4.328125 0-7.835937-3.511718-7.835937-7.839843v-38.785157c0-4.328124 3.507812-7.835937 7.835937-7.835937s7.839844 3.507813 7.839844 7.835937v38.785157c0 4.328125-3.511719 7.839843-7.839844 7.839843zm0 0"/><path d="m324.753906 305.101562c-4.328125 0-7.835937-3.511718-7.835937-7.839843v-38.785157c0-4.328124 3.507812-7.835937 7.835937-7.835937s7.839844 3.507813 7.839844 7.835937v38.785157c0 4.328125-3.507812 7.839843-7.839844 7.839843zm0 0"/></g></svg>